<svg xmlns="http://www.w3.org/2000/svg" viewBox="0 0 1389 768" width="1389" height="768">
  <defs>
    <style>
      .wordmark { font-family: 'Arial Black', Arial, Helvetica, sans-serif; font-weight: 900; }
    </style>
  </defs>

  <!-- transparent background; swap rect below to a solid fill for an opaque export -->
  <rect x="0" y="0" width="1389" height="768" fill="none"/>

  <!-- icon: mountain range (slate) - traced directly from the original artwork -->
  <path d="M 592.855 211.750 C 575.547 231.963, 553.516 257.725, 543.897 269 C 534.278 280.275, 515.838 301.875, 502.920 317 C 490.002 332.125, 469.261 356.471, 456.829 371.103 L 434.225 397.706 445.622 398.317 C 479.158 400.114, 513.015 393.501, 540.347 379.815 C 559.169 370.390, 573.987 359.420, 591.750 341.758 C 601.481 332.084, 603.186 330.770, 604.371 332.036 C 605.125 332.841, 614.640 344.750, 625.517 358.500 C 636.393 372.250, 645.904 384.162, 646.652 384.970 C 647.832 386.246, 648.441 385.919, 651.256 382.498 C 655.941 376.804, 699.111 326.523, 716.936 306 C 725.295 296.375, 737.167 282.564, 743.317 275.310 C 749.468 268.055, 754.812 262.205, 755.193 262.310 C 755.575 262.414, 762.477 269.925, 770.532 279 C 778.586 288.075, 788.536 299.206, 792.642 303.735 L 800.107 311.970 810.303 302.850 C 815.911 297.834, 820.622 293.423, 820.772 293.049 C 820.922 292.674, 806.316 275.136, 788.315 254.074 L 755.586 215.780 753.043 218.696 C 751.644 220.299, 740.877 232.709, 729.115 246.273 L 707.729 270.934 705.115 267.668 C 703.677 265.871, 697.310 258.348, 690.968 250.950 C 684.625 243.553, 667.383 223.438, 652.652 206.250 C 637.921 189.063, 625.521 175, 625.096 175 C 624.671 175, 610.163 191.537, 592.855 211.750 M 609.500 238.713 C 569.595 285.833, 514.749 349.389, 507.639 356.750 C 503.264 361.279, 502.869 362, 504.761 362 C 509.594 362, 527.344 354.038, 540.767 345.851 C 558.758 334.875, 582.977 311.651, 601.145 287.951 C 602.600 286.053, 603.999 284.725, 604.254 285 C 604.509 285.275, 610.010 292.250, 616.479 300.500 C 633.212 321.842, 647.334 339, 648.167 339 C 648.791 339, 653.947 333.224, 682.300 300.762 L 688.184 294.024 686.342 291.532 C 681.417 284.868, 626.371 221.107, 625.500 221.057 C 624.950 221.026, 617.750 228.971, 609.500 238.713"
        stroke="none" fill="#3D4750" fill-rule="evenodd"/>

  <!-- icon: checkmark (orange) - traced directly from the original artwork -->
  <path d="M 947 214.697 C 947 215.145, 945.763 216.065, 944.250 216.740 C 940.665 218.341, 910.602 240.874, 895.957 252.937 C 866.743 276.999, 846.550 295.383, 815.433 326.248 L 791.366 350.119 780.433 338.260 C 774.420 331.738, 765.070 321.385, 759.656 315.253 C 754.242 309.121, 749.292 303.917, 748.656 303.687 C 746.592 302.943, 744.500 304.721, 736.434 314.077 C 731.257 320.083, 728.613 323.954, 728.826 325.217 C 729.005 326.282, 733.679 332.406, 739.212 338.826 C 760.148 363.120, 783.918 390.649, 787.283 394.500 L 790.778 398.500 795.643 393.500 C 798.319 390.750, 807.482 380.426, 816.004 370.559 C 824.527 360.691, 834.445 349.216, 838.045 345.059 C 841.645 340.901, 854.470 326.024, 866.545 311.997 C 878.620 297.970, 901.325 271.691, 917 253.600 C 946.150 219.954, 949.657 215.524, 947.963 214.477 C 947.433 214.150, 947 214.249, 947 214.697"
        stroke="none" fill="#E8732A" fill-rule="evenodd"/>

  <!-- wordmark -->
  <text x="694" y="500" text-anchor="middle" class="wordmark" font-size="92" letter-spacing="1">
    <tspan fill="#3D4750">ANDES</tspan><tspan fill="#E8732A">CHECK</tspan>
  </text>

  <!-- subtitle -->
  <text x="694" y="565" text-anchor="middle" font-family="Arial, Helvetica, sans-serif"
        font-size="33" letter-spacing="4" fill="#5B6670">
    CLOUD MANAGEMENT
  </text>
</svg>
